<?xml version="1.0" encoding="iso-8859-1"?>
<!-- Generator: Adobe Illustrator 19.0.0, SVG Export Plug-In . SVG Version: 6.00 Build 0)  -->
<svg version="1.1" id="Layer_1" xmlns="http://www.w3.org/2000/svg" xmlns:xlink="http://www.w3.org/1999/xlink" x="0px" y="0px"
	 viewBox="0 0 512 512" style="enable-background:new 0 0 512 512;" xml:space="preserve">
<path style="fill:#E0A03D;" d="M67.071,504.396c-32.249,0-58.392-26.144-58.392-58.392V65.996c0-32.25,26.143-58.392,58.392-58.392
	h377.857c32.25,0,58.392,26.142,58.392,58.392v380.008c0,32.248-26.142,58.392-58.392,58.392L67.071,504.396L67.071,504.396z"/>
<path style="fill:#491E17;" d="M444.93,512H67.071c-36.391,0-65.996-29.606-65.996-65.996V65.996C1.075,29.606,30.681,0,67.071,0
	h377.857c36.391,0,65.996,29.606,65.996,65.996v380.008C510.926,482.394,481.32,512,444.93,512z M67.071,15.208
	c-28.005,0-50.788,22.783-50.788,50.788v380.008c0,28.004,22.783,50.787,50.788,50.787h377.857
	c28.005,0,50.788-22.783,50.788-50.788V65.996c0.001-28.005-22.782-50.788-50.787-50.788H67.071z"/>
<path style="fill:#F6E088;" d="M162.109,139.78c0,11.737-9.516,21.255-21.253,21.255H66.428c-11.737,0-21.253-9.517-21.253-21.255
	V65.354c0-11.738,9.515-21.255,21.253-21.255h74.429c11.737,0,21.253,9.516,21.253,21.255V139.78z"/>
<path style="fill:#491E17;" d="M140.856,168.639H66.428c-15.912,0-28.857-12.946-28.857-28.859V65.354
	c0-15.913,12.945-28.859,28.857-28.859h74.429c15.912,0,28.857,12.946,28.857,28.859v74.427
	C169.713,155.693,156.768,168.639,140.856,168.639z M66.428,51.703c-7.526,0-13.649,6.124-13.649,13.651v74.427
	c0,7.527,6.123,13.651,13.649,13.651h74.429c7.526,0,13.649-6.124,13.649-13.651V65.354c0-7.527-6.123-13.651-13.649-13.651H66.428z
	"/>
<path style="fill:#F6E088;" d="M314.468,139.78c0,11.737-9.516,21.255-21.253,21.255h-74.429c-11.737,0-21.253-9.517-21.253-21.255
	V65.354c0-11.738,9.515-21.255,21.253-21.255h74.429c11.737,0,21.253,9.516,21.253,21.255V139.78z"/>
<path style="fill:#491E17;" d="M293.214,168.639h-74.429c-15.912,0-28.857-12.946-28.857-28.859V65.354
	c0-15.913,12.945-28.859,28.857-28.859h74.429c15.912,0,28.857,12.946,28.857,28.859v74.427
	C322.072,155.693,309.126,168.639,293.214,168.639z M218.786,51.703c-7.526,0-13.649,6.124-13.649,13.651v74.427
	c0,7.527,6.123,13.651,13.649,13.651h74.429c7.526,0,13.649-6.124,13.649-13.651V65.354c0-7.527-6.123-13.651-13.649-13.651H218.786
	z"/>
<path style="fill:#F6E088;" d="M349.892,92.428V65.354c0-11.738,9.516-21.255,21.254-21.255h74.427
	c11.737,0,21.253,9.516,21.253,21.255v74.427c0,11.737-9.515,21.255-21.253,21.255h-74.427c-11.737,0-21.254-9.517-21.254-21.255
	v-27.074"/>
<path style="fill:#491E17;" d="M445.572,168.639h-74.427c-15.913,0-28.858-12.946-28.858-28.859v-27.074h15.208v27.074
	c0,7.527,6.124,13.651,13.65,13.651h74.427c7.526,0,13.649-6.124,13.649-13.651V65.354c0-7.527-6.123-13.651-13.649-13.651h-74.427
	c-7.527,0-13.65,6.124-13.65,13.651v27.074h-15.208V65.354c0-15.913,12.946-28.859,28.858-28.859h74.427
	c15.912,0,28.857,12.946,28.857,28.859v74.427C474.43,155.693,461.485,168.639,445.572,168.639z"/>
<path style="fill:#F6E088;" d="M162.109,293.211c0,11.738-9.516,21.255-21.253,21.255H66.428c-11.737,0-21.253-9.517-21.253-21.255
	v-74.427c0-11.738,9.515-21.254,21.253-21.254h74.429c11.737,0,21.253,9.516,21.253,21.254V293.211z"/>
<path style="fill:#491E17;" d="M140.856,322.07H66.428c-15.912,0-28.857-12.946-28.857-28.859v-74.427
	c0-15.913,12.945-28.858,28.857-28.858h74.429c15.912,0,28.857,12.945,28.857,28.858v74.427
	C169.713,309.123,156.768,322.07,140.856,322.07z M66.428,205.135c-7.526,0-13.649,6.123-13.649,13.65v74.427
	c0,7.527,6.123,13.651,13.649,13.651h74.429c7.526,0,13.649-6.124,13.649-13.651v-74.427c0-7.527-6.123-13.65-13.649-13.65H66.428z"
	/>
<path style="fill:#F6E088;" d="M314.468,293.211c0,11.738-9.516,21.255-21.253,21.255h-74.429c-11.737,0-21.253-9.517-21.253-21.255
	v-74.427c0-11.738,9.515-21.254,21.253-21.254h74.429c11.737,0,21.253,9.516,21.253,21.254V293.211z"/>
<path style="fill:#491E17;" d="M293.214,322.07h-74.429c-15.912,0-28.857-12.946-28.857-28.859v-74.427
	c0-15.913,12.945-28.858,28.857-28.858h74.429c15.912,0,28.857,12.945,28.857,28.858v74.427
	C322.072,309.123,309.126,322.07,293.214,322.07z M218.786,205.135c-7.526,0-13.649,6.123-13.649,13.65v74.427
	c0,7.527,6.123,13.651,13.649,13.651h74.429c7.526,0,13.649-6.124,13.649-13.651v-74.427c0-7.527-6.123-13.65-13.649-13.65H218.786z
	"/>
<path style="fill:#F6E088;" d="M466.826,293.211c0,11.738-9.515,21.255-21.253,21.255h-74.427c-11.737,0-21.254-9.517-21.254-21.255
	v-74.427c0-11.738,9.516-21.254,21.254-21.254h74.427c11.737,0,21.253,9.516,21.253,21.254V293.211z"/>
<path style="fill:#491E17;" d="M445.572,322.07h-74.427c-15.913,0-28.858-12.946-28.858-28.859v-74.427
	c0-15.913,12.946-28.858,28.858-28.858h74.427c15.912,0,28.857,12.945,28.857,28.858v74.427
	C474.43,309.123,461.485,322.07,445.572,322.07z M371.146,205.135c-7.527,0-13.65,6.123-13.65,13.65v74.427
	c0,7.527,6.124,13.651,13.65,13.651h74.427c7.526,0,13.649-6.124,13.649-13.651v-74.427c0-7.527-6.123-13.65-13.649-13.65H371.146z"
	/>
<path style="fill:#F6E088;" d="M162.109,446.643c0,11.738-9.516,21.254-21.253,21.254H66.428c-11.737,0-21.253-9.515-21.253-21.254
	v-74.427c0-11.738,9.515-21.254,21.253-21.254h74.429c11.737,0,21.253,9.515,21.253,21.254V446.643z"/>
<path style="fill:#491E17;" d="M140.856,475.501H66.428c-15.912,0-28.857-12.946-28.857-28.858v-74.427
	c0-15.912,12.945-28.858,28.857-28.858h74.429c15.912,0,28.857,12.946,28.857,28.858v74.427
	C169.713,462.555,156.768,475.501,140.856,475.501z M66.428,358.567c-7.526,0-13.649,6.124-13.649,13.65v74.427
	c0,7.526,6.123,13.65,13.649,13.65h74.429c7.526,0,13.649-6.124,13.649-13.65v-74.427c0-7.526-6.123-13.65-13.649-13.65H66.428z"/>
<path style="fill:#F6E088;" d="M314.468,446.643c0,11.738-9.516,21.254-21.253,21.254h-74.429c-11.737,0-21.253-9.515-21.253-21.254
	v-74.427c0-11.738,9.515-21.254,21.253-21.254h74.429c11.737,0,21.253,9.515,21.253,21.254V446.643z"/>
<path style="fill:#491E17;" d="M293.214,475.501h-74.429c-15.912,0-28.857-12.946-28.857-28.858v-74.427
	c0-15.912,12.945-28.858,28.857-28.858h74.429c15.912,0,28.857,12.946,28.857,28.858v74.427
	C322.072,462.555,309.126,475.501,293.214,475.501z M218.786,358.567c-7.526,0-13.649,6.124-13.649,13.65v74.427
	c0,7.526,6.123,13.65,13.649,13.65h74.429c7.526,0,13.649-6.124,13.649-13.65v-74.427c0-7.526-6.123-13.65-13.649-13.65H218.786z"/>
<path style="fill:#F6E088;" d="M466.826,446.643c0,11.738-9.515,21.254-21.253,21.254h-74.427c-11.737,0-21.254-9.515-21.254-21.254
	v-74.427c0-11.738,9.516-21.254,21.254-21.254h74.427c11.737,0,21.253,9.515,21.253,21.254V446.643z"/>
<path style="fill:#491E17;" d="M445.572,475.501h-74.427c-15.913,0-28.858-12.946-28.858-28.858v-74.427
	c0-15.912,12.946-28.858,28.858-28.858h74.427c15.912,0,28.857,12.946,28.857,28.858v74.427
	C474.43,462.555,461.485,475.501,445.572,475.501z M371.146,358.567c-7.527,0-13.65,6.124-13.65,13.65v74.427
	c0,7.526,6.124,13.65,13.65,13.65h74.427c7.526,0,13.649-6.124,13.649-13.65v-74.427c0-7.526-6.123-13.65-13.649-13.65H371.146z"/>
<g>
</g>
<g>
</g>
<g>
</g>
<g>
</g>
<g>
</g>
<g>
</g>
<g>
</g>
<g>
</g>
<g>
</g>
<g>
</g>
<g>
</g>
<g>
</g>
<g>
</g>
<g>
</g>
<g>
</g>
</svg>
